<?xml version="1.0" encoding="UTF-8" standalone="no"?><svg xmlns="http://www.w3.org/2000/svg" xmlns:xlink="http://www.w3.org/1999/xlink" contentScriptType="application/ecmascript" contentStyleType="text/css" height="449px" preserveAspectRatio="none" style="width:159px;height:449px;" version="1.1" viewBox="0 0 159 449" width="159px" zoomAndPan="magnify"><defs><filter height="300%" id="f8aivmp3m09mw" width="300%" x="-1" y="-1"><feGaussianBlur result="blurOut" stdDeviation="2.0"/><feColorMatrix in="blurOut" result="blurOut2" type="matrix" values="0 0 0 0 0 0 0 0 0 0 0 0 0 0 0 0 0 0 .4 0"/><feOffset dx="4.0" dy="4.0" in="blurOut2" result="blurOut3"/><feBlend in="SourceGraphic" in2="blurOut3" mode="normal"/></filter></defs><g><ellipse cx="76.5" cy="18" fill="#000000" filter="url(#f8aivmp3m09mw)" rx="10" ry="10" style="stroke: none; stroke-width: 1.0;"/><rect fill="#FEFECE" filter="url(#f8aivmp3m09mw)" height="50" rx="12.5" ry="12.5" style="stroke: #A80036; stroke-width: 1.5;" width="89" x="32" y="88"/><line style="stroke: #A80036; stroke-width: 1.5;" x1="32" x2="121" y1="114.2969" y2="114.2969"/><text fill="#000000" font-family="sans-serif" font-size="14" lengthAdjust="spacingAndGlyphs" textLength="69" x="42" y="105.9951">appearing</text><rect fill="#FEFECE" filter="url(#f8aivmp3m09mw)" height="50" rx="12.5" ry="12.5" style="stroke: #A80036; stroke-width: 1.5;" width="141" x="6" y="198"/><line style="stroke: #A80036; stroke-width: 1.5;" x1="6" x2="147" y1="224.2969" y2="224.2969"/><text fill="#000000" font-family="sans-serif" font-size="14" lengthAdjust="spacingAndGlyphs" textLength="121" x="16" y="215.9951">waitingToExplode</text><rect fill="#FEFECE" filter="url(#f8aivmp3m09mw)" height="50" rx="12.5" ry="12.5" style="stroke: #A80036; stroke-width: 1.5;" width="75" x="39" y="308"/><line style="stroke: #A80036; stroke-width: 1.5;" x1="39" x2="114" y1="334.2969" y2="334.2969"/><text fill="#000000" font-family="sans-serif" font-size="14" lengthAdjust="spacingAndGlyphs" textLength="55" x="49" y="325.9951">explode</text><ellipse cx="76.5" cy="428" fill="none" filter="url(#f8aivmp3m09mw)" rx="10" ry="10" style="stroke: #000000; stroke-width: 1.0;"/><ellipse cx="77" cy="428.5" fill="#000000" rx="6" ry="6" style="stroke: none; stroke-width: 1.0;"/><!--MD5=[d75ed434cc5c826164554f09e10f0180]
link *start to appearing--><path d="M76.5,28.1667 C76.5,41.0299 76.5,63.7608 76.5,82.4572 " fill="none" id="*start-&gt;appearing" style="stroke: #A80036; stroke-width: 1.0;"/><polygon fill="#A80036" points="76.5,87.612,80.5,78.612,76.5,82.612,72.5,78.612,76.5,87.612" style="stroke: #A80036; stroke-width: 1.0;"/><!--MD5=[eab6cc377a205bd13d9770e6c1aa7609]
link appearing to waitingToExplode--><path d="M76.5,138.2362 C76.5,154.4464 76.5,175.5926 76.5,192.7087 " fill="none" id="appearing-&gt;waitingToExplode" style="stroke: #A80036; stroke-width: 1.0;"/><polygon fill="#A80036" points="76.5,197.8812,80.5,188.8812,76.5,192.8812,72.5,188.8812,76.5,197.8812" style="stroke: #A80036; stroke-width: 1.0;"/><!--MD5=[724a881ea3e714420480a22b6c2a2626]
link waitingToExplode to explode--><path d="M76.5,248.2362 C76.5,264.4464 76.5,285.5926 76.5,302.7087 " fill="none" id="waitingToExplode-&gt;explode" style="stroke: #A80036; stroke-width: 1.0;"/><polygon fill="#A80036" points="76.5,307.8812,80.5,298.8812,76.5,302.8812,72.5,298.8812,76.5,307.8812" style="stroke: #A80036; stroke-width: 1.0;"/><!--MD5=[f41ca843d5352884d5729b11278d20f9]
link explode to *end--><path d="M76.5,358.4583 C76.5,375.6886 76.5,397.8909 76.5,412.5165 " fill="none" id="explode-&gt;*end" style="stroke: #A80036; stroke-width: 1.0;"/><polygon fill="#A80036" points="76.5,417.5388,80.5,408.5388,76.5,412.5388,72.5,408.5388,76.5,417.5388" style="stroke: #A80036; stroke-width: 1.0;"/><!--MD5=[e52a827900dd4eace63c4908b9295655]
@startuml
[*] - -> appearing
appearing - -> waitingToExplode
waitingToExplode - -> explode
explode - -> [*]
@enduml

PlantUML version 1.2019.10(Fri Sep 13 20:53:03 UTC 2019)
(GPL source distribution)
Java Runtime: OpenJDK Runtime Environment
JVM: OpenJDK 64-Bit Server VM
Java Version: 1.8.0_222-heroku-b10
Operating System: Linux
Default Encoding: UTF-8
Language: en
Country: US
--></g></svg>