<?xml version="1.0" encoding="UTF-8" standalone="no"?><svg xmlns="http://www.w3.org/2000/svg" xmlns:xlink="http://www.w3.org/1999/xlink" contentScriptType="application/ecmascript" contentStyleType="text/css" height="484px" preserveAspectRatio="none" style="width:140px;height:484px;" version="1.1" viewBox="0 0 140 484" width="140px" zoomAndPan="magnify"><defs><filter height="300%" id="fw9dkx2h22p5e" width="300%" x="-1" y="-1"><feGaussianBlur result="blurOut" stdDeviation="2.0"/><feColorMatrix in="blurOut" result="blurOut2" type="matrix" values="0 0 0 0 0 0 0 0 0 0 0 0 0 0 0 0 0 0 .4 0"/><feOffset dx="4.0" dy="4.0" in="blurOut2" result="blurOut3"/><feBlend in="SourceGraphic" in2="blurOut3" mode="normal"/></filter></defs><g><!--MD5=[9182718140f5de903b1d6ea78932bda8]
cluster alive--><rect fill="#FEFECE" filter="url(#fw9dkx2h22p5e)" height="275" rx="12.5" ry="12.5" style="stroke: #A80036; stroke-width: 1.5;" width="86" x="14" y="16"/><rect fill="#FFFFFF" height="242.7031" rx="12.5" ry="12.5" style="stroke: #FFFFFF; stroke-width: 1.0;" width="80" x="17" y="45.2969"/><line style="stroke: #A80036; stroke-width: 1.5;" x1="14" x2="100" y1="42.2969" y2="42.2969"/><text fill="#000000" font-family="sans-serif" font-size="14" lengthAdjust="spacingAndGlyphs" textLength="30" x="42" y="32.9951">alive</text><ellipse cx="57" cy="53" fill="#000000" filter="url(#fw9dkx2h22p5e)" rx="10" ry="10" style="stroke: none; stroke-width: 1.0;"/><rect fill="#FEFECE" filter="url(#fw9dkx2h22p5e)" height="50" rx="12.5" ry="12.5" style="stroke: #A80036; stroke-width: 1.5;" width="68" x="23" y="123"/><line style="stroke: #A80036; stroke-width: 1.5;" x1="23" x2="91" y1="149.2969" y2="149.2969"/><text fill="#000000" font-family="sans-serif" font-size="14" lengthAdjust="spacingAndGlyphs" textLength="48" x="33" y="140.9951">appear</text><rect fill="#FEFECE" filter="url(#fw9dkx2h22p5e)" height="50" rx="12.5" ry="12.5" style="stroke: #A80036; stroke-width: 1.5;" width="70" x="22" y="233"/><line style="stroke: #A80036; stroke-width: 1.5;" x1="22" x2="92" y1="259.2969" y2="259.2969"/><text fill="#000000" font-family="sans-serif" font-size="14" lengthAdjust="spacingAndGlyphs" textLength="50" x="32" y="250.9951">moving</text><rect fill="#FEFECE" filter="url(#fw9dkx2h22p5e)" height="50" rx="12.5" ry="12.5" style="stroke: #A80036; stroke-width: 1.5;" width="55" x="73.5" y="343"/><line style="stroke: #A80036; stroke-width: 1.5;" x1="73.5" x2="128.5" y1="369.2969" y2="369.2969"/><text fill="#000000" font-family="sans-serif" font-size="14" lengthAdjust="spacingAndGlyphs" textLength="35" x="83.5" y="360.9951">dead</text><ellipse cx="101" cy="463" fill="none" filter="url(#fw9dkx2h22p5e)" rx="10" ry="10" style="stroke: #000000; stroke-width: 1.0;"/><ellipse cx="101.5" cy="463.5" fill="#000000" rx="6" ry="6" style="stroke: none; stroke-width: 1.0;"/><!--MD5=[f0cfd53b805069590196896cb8a1628d]
link *start*alive to appear--><path d="M57,63.1667 C57,76.0299 57,98.7608 57,117.4572 " fill="none" id="*start*alive-&gt;appear" style="stroke: #A80036; stroke-width: 1.0;"/><polygon fill="#A80036" points="57,122.612,61,113.612,57,117.612,53,113.612,57,122.612" style="stroke: #A80036; stroke-width: 1.0;"/><!--MD5=[617aff2b4bcbefcdb9d90199d046706b]
link appear to moving--><path d="M57,173.2362 C57,189.4464 57,210.5926 57,227.7087 " fill="none" id="appear-&gt;moving" style="stroke: #A80036; stroke-width: 1.0;"/><polygon fill="#A80036" points="57,232.8812,61,223.8812,57,227.8812,53,223.8812,57,232.8812" style="stroke: #A80036; stroke-width: 1.0;"/><!--MD5=[383e3d45e6972d979fe5a8e97744156d]
link appear to dead--><path d="M78.0846,173.3405 C89.9996,189.3534 103.7311,211.0978 110,233 C119.9794,267.8656 114.6484,309.7787 108.8444,337.5576 " fill="none" id="appear-&gt;dead" style="stroke: #A80036; stroke-width: 1.0;"/><polygon fill="#A80036" points="107.7588,342.5752,113.5717,334.6247,108.8162,337.6883,105.7526,332.9328,107.7588,342.5752" style="stroke: #A80036; stroke-width: 1.0;"/><!--MD5=[b4bf557743c67f5231248dae79588d8a]
link moving to dead--><path d="M67.0945,283.2362 C73.6344,299.5861 82.183,320.9576 89.0602,338.1504 " fill="none" id="moving-&gt;dead" style="stroke: #A80036; stroke-width: 1.0;"/><polygon fill="#A80036" points="90.9525,342.8812,91.3238,333.0393,89.0955,338.2388,83.896,336.0105,90.9525,342.8812" style="stroke: #A80036; stroke-width: 1.0;"/><!--MD5=[7dc855e9b8806ec02b1d5d579b886a39]
link dead to *end--><path d="M101,393.4583 C101,410.6886 101,432.8909 101,447.5165 " fill="none" id="dead-&gt;*end" style="stroke: #A80036; stroke-width: 1.0;"/><polygon fill="#A80036" points="101,452.5388,105,443.5388,101,447.5388,97,443.5388,101,452.5388" style="stroke: #A80036; stroke-width: 1.0;"/><!--MD5=[efd3adb206ec516a42c6e590907b60a0]
@startuml
state alive {
[*] - -> appear
appear - -> moving
}
appear - -> dead
moving - -> dead
dead - -> [*]
@enduml

PlantUML version 1.2019.10(Fri Sep 13 20:53:03 UTC 2019)
(GPL source distribution)
Java Runtime: OpenJDK Runtime Environment
JVM: OpenJDK 64-Bit Server VM
Java Version: 1.8.0_222-heroku-b10
Operating System: Linux
Default Encoding: UTF-8
Language: en
Country: US
--></g></svg>