<?xml version="1.0" encoding="UTF-8" standalone="no"?><svg xmlns="http://www.w3.org/2000/svg" xmlns:xlink="http://www.w3.org/1999/xlink" contentScriptType="application/ecmascript" contentStyleType="text/css" height="461px" preserveAspectRatio="none" style="width:868px;height:461px;" version="1.1" viewBox="0 0 868 461" width="868px" zoomAndPan="magnify"><defs><filter height="300%" id="f16mirihod8a2m" width="300%" x="-1" y="-1"><feGaussianBlur result="blurOut" stdDeviation="2.0"/><feColorMatrix in="blurOut" result="blurOut2" type="matrix" values="0 0 0 0 0 0 0 0 0 0 0 0 0 0 0 0 0 0 .4 0"/><feOffset dx="4.0" dy="4.0" in="blurOut2" result="blurOut3"/><feBlend in="SourceGraphic" in2="blurOut3" mode="normal"/></filter></defs><g><rect fill="#FFFFFF" filter="url(#f16mirihod8a2m)" height="145.6641" style="stroke: #A80036; stroke-width: 1.0;" width="10" x="138" y="69.4297"/><rect fill="#FFFFFF" filter="url(#f16mirihod8a2m)" height="71.2656" style="stroke: #A80036; stroke-width: 1.0;" width="10" x="248" y="215.0938"/><rect fill="#FFFFFF" filter="url(#f16mirihod8a2m)" height="29.1328" style="stroke: #A80036; stroke-width: 1.0;" width="10" x="351" y="286.3594"/><rect fill="#FFFFFF" filter="url(#f16mirihod8a2m)" height="96.3984" style="stroke: #A80036; stroke-width: 1.0;" width="10" x="468" y="315.4922"/><line style="stroke: #A80036; stroke-width: 1.0; stroke-dasharray: 5.0,5.0;" x1="33" x2="33" y1="38.2969" y2="420.8906"/><line style="stroke: #A80036; stroke-width: 1.0; stroke-dasharray: 5.0,5.0;" x1="142.5" x2="142.5" y1="38.2969" y2="420.8906"/><line style="stroke: #A80036; stroke-width: 1.0; stroke-dasharray: 5.0,5.0;" x1="252.5" x2="252.5" y1="38.2969" y2="420.8906"/><line style="stroke: #A80036; stroke-width: 1.0; stroke-dasharray: 5.0,5.0;" x1="355.5" x2="355.5" y1="38.2969" y2="420.8906"/><line style="stroke: #A80036; stroke-width: 1.0; stroke-dasharray: 5.0,5.0;" x1="472.5" x2="472.5" y1="38.2969" y2="420.8906"/><line style="stroke: #A80036; stroke-width: 1.0; stroke-dasharray: 5.0,5.0;" x1="564.5" x2="564.5" y1="38.2969" y2="420.8906"/><line style="stroke: #A80036; stroke-width: 1.0; stroke-dasharray: 5.0,5.0;" x1="684.5" x2="684.5" y1="38.2969" y2="420.8906"/><line style="stroke: #A80036; stroke-width: 1.0; stroke-dasharray: 5.0,5.0;" x1="804.5" x2="804.5" y1="38.2969" y2="420.8906"/><rect fill="#FEFECE" filter="url(#f16mirihod8a2m)" height="30.2969" style="stroke: #A80036; stroke-width: 1.5;" width="46" x="8" y="3"/><text fill="#000000" font-family="sans-serif" font-size="14" lengthAdjust="spacingAndGlyphs" textLength="32" x="15" y="22.9951">User</text><rect fill="#FEFECE" filter="url(#f16mirihod8a2m)" height="30.2969" style="stroke: #A80036; stroke-width: 1.5;" width="46" x="8" y="419.8906"/><text fill="#000000" font-family="sans-serif" font-size="14" lengthAdjust="spacingAndGlyphs" textLength="32" x="15" y="439.8857">User</text><rect fill="#FEFECE" filter="url(#f16mirihod8a2m)" height="30.2969" style="stroke: #A80036; stroke-width: 1.5;" width="99" x="91.5" y="3"/><text fill="#000000" font-family="sans-serif" font-size="14" lengthAdjust="spacingAndGlyphs" textLength="85" x="98.5" y="22.9951">Bomberman</text><rect fill="#FEFECE" filter="url(#f16mirihod8a2m)" height="30.2969" style="stroke: #A80036; stroke-width: 1.5;" width="99" x="91.5" y="419.8906"/><text fill="#000000" font-family="sans-serif" font-size="14" lengthAdjust="spacingAndGlyphs" textLength="85" x="98.5" y="439.8857">Bomberman</text><rect fill="#FEFECE" filter="url(#f16mirihod8a2m)" height="30.2969" style="stroke: #A80036; stroke-width: 1.5;" width="55" x="223.5" y="3"/><text fill="#000000" font-family="sans-serif" font-size="14" lengthAdjust="spacingAndGlyphs" textLength="41" x="230.5" y="22.9951">Bomb</text><rect fill="#FEFECE" filter="url(#f16mirihod8a2m)" height="30.2969" style="stroke: #A80036; stroke-width: 1.5;" width="55" x="223.5" y="419.8906"/><text fill="#000000" font-family="sans-serif" font-size="14" lengthAdjust="spacingAndGlyphs" textLength="41" x="230.5" y="439.8857">Bomb</text><rect fill="#FEFECE" filter="url(#f16mirihod8a2m)" height="30.2969" style="stroke: #A80036; stroke-width: 1.5;" width="77" x="315.5" y="3"/><text fill="#000000" font-family="sans-serif" font-size="14" lengthAdjust="spacingAndGlyphs" textLength="63" x="322.5" y="22.9951">Explotion</text><rect fill="#FEFECE" filter="url(#f16mirihod8a2m)" height="30.2969" style="stroke: #A80036; stroke-width: 1.5;" width="77" x="315.5" y="419.8906"/><text fill="#000000" font-family="sans-serif" font-size="14" lengthAdjust="spacingAndGlyphs" textLength="63" x="322.5" y="439.8857">Explotion</text><rect fill="#FEFECE" filter="url(#f16mirihod8a2m)" height="30.2969" style="stroke: #A80036; stroke-width: 1.5;" width="43" x="449.5" y="3"/><text fill="#000000" font-family="sans-serif" font-size="14" lengthAdjust="spacingAndGlyphs" textLength="29" x="456.5" y="22.9951">Map</text><rect fill="#FEFECE" filter="url(#f16mirihod8a2m)" height="30.2969" style="stroke: #A80036; stroke-width: 1.5;" width="43" x="449.5" y="419.8906"/><text fill="#000000" font-family="sans-serif" font-size="14" lengthAdjust="spacingAndGlyphs" textLength="29" x="456.5" y="439.8857">Map</text><rect fill="#FEFECE" filter="url(#f16mirihod8a2m)" height="30.2969" style="stroke: #A80036; stroke-width: 1.5;" width="112" x="506.5" y="3"/><text fill="#000000" font-family="sans-serif" font-size="14" lengthAdjust="spacingAndGlyphs" textLength="98" x="513.5" y="22.9951">BalloonEnemy</text><rect fill="#FEFECE" filter="url(#f16mirihod8a2m)" height="30.2969" style="stroke: #A80036; stroke-width: 1.5;" width="112" x="506.5" y="419.8906"/><text fill="#000000" font-family="sans-serif" font-size="14" lengthAdjust="spacingAndGlyphs" textLength="98" x="513.5" y="439.8857">BalloonEnemy</text><rect fill="#FEFECE" filter="url(#f16mirihod8a2m)" height="30.2969" style="stroke: #A80036; stroke-width: 1.5;" width="101" x="632.5" y="3"/><text fill="#000000" font-family="sans-serif" font-size="14" lengthAdjust="spacingAndGlyphs" textLength="87" x="639.5" y="22.9951">WaterEnemy</text><rect fill="#FEFECE" filter="url(#f16mirihod8a2m)" height="30.2969" style="stroke: #A80036; stroke-width: 1.5;" width="101" x="632.5" y="419.8906"/><text fill="#000000" font-family="sans-serif" font-size="14" lengthAdjust="spacingAndGlyphs" textLength="87" x="639.5" y="439.8857">WaterEnemy</text><rect fill="#FEFECE" filter="url(#f16mirihod8a2m)" height="30.2969" style="stroke: #A80036; stroke-width: 1.5;" width="110" x="747.5" y="3"/><text fill="#000000" font-family="sans-serif" font-size="14" lengthAdjust="spacingAndGlyphs" textLength="96" x="754.5" y="22.9951">BreakableWall</text><rect fill="#FEFECE" filter="url(#f16mirihod8a2m)" height="30.2969" style="stroke: #A80036; stroke-width: 1.5;" width="110" x="747.5" y="419.8906"/><text fill="#000000" font-family="sans-serif" font-size="14" lengthAdjust="spacingAndGlyphs" textLength="96" x="754.5" y="439.8857">BreakableWall</text><rect fill="#FFFFFF" filter="url(#f16mirihod8a2m)" height="145.6641" style="stroke: #A80036; stroke-width: 1.0;" width="10" x="138" y="69.4297"/><rect fill="#FFFFFF" filter="url(#f16mirihod8a2m)" height="71.2656" style="stroke: #A80036; stroke-width: 1.0;" width="10" x="248" y="215.0938"/><rect fill="#FFFFFF" filter="url(#f16mirihod8a2m)" height="29.1328" style="stroke: #A80036; stroke-width: 1.0;" width="10" x="351" y="286.3594"/><rect fill="#FFFFFF" filter="url(#f16mirihod8a2m)" height="96.3984" style="stroke: #A80036; stroke-width: 1.0;" width="10" x="468" y="315.4922"/><polygon fill="#A80036" points="126,65.4297,136,69.4297,126,73.4297,130,69.4297" style="stroke: #A80036; stroke-width: 1.0;"/><line style="stroke: #A80036; stroke-width: 1.0;" x1="33" x2="132" y1="69.4297" y2="69.4297"/><text fill="#000000" font-family="sans-serif" font-size="13" lengthAdjust="spacingAndGlyphs" textLength="62" x="40" y="64.3638">moveup()</text><polygon fill="#A80036" points="126,94.5625,136,98.5625,126,102.5625,130,98.5625" style="stroke: #A80036; stroke-width: 1.0;"/><line style="stroke: #A80036; stroke-width: 1.0;" x1="33" x2="132" y1="98.5625" y2="98.5625"/><text fill="#000000" font-family="sans-serif" font-size="13" lengthAdjust="spacingAndGlyphs" textLength="79" x="40" y="93.4966">movedown()</text><polygon fill="#A80036" points="126,123.6953,136,127.6953,126,131.6953,130,127.6953" style="stroke: #A80036; stroke-width: 1.0;"/><line style="stroke: #A80036; stroke-width: 1.0;" x1="33" x2="132" y1="127.6953" y2="127.6953"/><text fill="#000000" font-family="sans-serif" font-size="13" lengthAdjust="spacingAndGlyphs" textLength="75" x="40" y="122.6294">moveright()</text><polygon fill="#A80036" points="126,152.8281,136,156.8281,126,160.8281,130,156.8281" style="stroke: #A80036; stroke-width: 1.0;"/><line style="stroke: #A80036; stroke-width: 1.0;" x1="33" x2="132" y1="156.8281" y2="156.8281"/><text fill="#000000" font-family="sans-serif" font-size="13" lengthAdjust="spacingAndGlyphs" textLength="66" x="40" y="151.7622">moveleft()</text><polygon fill="#A80036" points="126,181.9609,136,185.9609,126,189.9609,130,185.9609" style="stroke: #A80036; stroke-width: 1.0;"/><line style="stroke: #A80036; stroke-width: 1.0;" x1="33" x2="132" y1="185.9609" y2="185.9609"/><text fill="#000000" font-family="sans-serif" font-size="13" lengthAdjust="spacingAndGlyphs" textLength="81" x="40" y="180.895">placebomb()</text><polygon fill="#A80036" points="236,211.0938,246,215.0938,236,219.0938,240,215.0938" style="stroke: #A80036; stroke-width: 1.0;"/><line style="stroke: #A80036; stroke-width: 1.0;" x1="143" x2="242" y1="215.0938" y2="215.0938"/><text fill="#000000" font-family="sans-serif" font-size="13" lengthAdjust="spacingAndGlyphs" textLength="81" x="150" y="210.0278">placebomb()</text><line style="stroke: #A80036; stroke-width: 1.0;" x1="258" x2="300" y1="244.2266" y2="244.2266"/><line style="stroke: #A80036; stroke-width: 1.0;" x1="300" x2="300" y1="244.2266" y2="257.2266"/><line style="stroke: #A80036; stroke-width: 1.0;" x1="259" x2="300" y1="257.2266" y2="257.2266"/><polygon fill="#A80036" points="269,253.2266,259,257.2266,269,261.2266,265,257.2266" style="stroke: #A80036; stroke-width: 1.0;"/><text fill="#000000" font-family="sans-serif" font-size="13" lengthAdjust="spacingAndGlyphs" textLength="79" x="265" y="239.1606">countdown()</text><polygon fill="#A80036" points="339,282.3594,349,286.3594,339,290.3594,343,286.3594" style="stroke: #A80036; stroke-width: 1.0;"/><line style="stroke: #A80036; stroke-width: 1.0;" x1="253" x2="345" y1="286.3594" y2="286.3594"/><text fill="#000000" font-family="sans-serif" font-size="13" lengthAdjust="spacingAndGlyphs" textLength="60" x="260" y="281.2935">explode()</text><polygon fill="#A80036" points="456,311.4922,466,315.4922,456,319.4922,460,315.4922" style="stroke: #A80036; stroke-width: 1.0;"/><line style="stroke: #A80036; stroke-width: 1.0;" x1="356" x2="462" y1="315.4922" y2="315.4922"/><text fill="#000000" font-family="sans-serif" font-size="13" lengthAdjust="spacingAndGlyphs" textLength="88" x="363" y="310.4263">explodecells()</text><polygon fill="#A80036" points="552.5,340.625,562.5,344.625,552.5,348.625,556.5,344.625" style="stroke: #A80036; stroke-width: 1.0;"/><line style="stroke: #A80036; stroke-width: 1.0;" x1="478" x2="558.5" y1="344.625" y2="344.625"/><text fill="#000000" font-family="sans-serif" font-size="13" lengthAdjust="spacingAndGlyphs" textLength="29" x="485" y="339.5591">die()</text><polygon fill="#A80036" points="673,369.7578,683,373.7578,673,377.7578,677,373.7578" style="stroke: #A80036; stroke-width: 1.0;"/><line style="stroke: #A80036; stroke-width: 1.0;" x1="478" x2="679" y1="373.7578" y2="373.7578"/><text fill="#000000" font-family="sans-serif" font-size="13" lengthAdjust="spacingAndGlyphs" textLength="29" x="485" y="368.6919">die()</text><polygon fill="#A80036" points="792.5,398.8906,802.5,402.8906,792.5,406.8906,796.5,402.8906" style="stroke: #A80036; stroke-width: 1.0;"/><line style="stroke: #A80036; stroke-width: 1.0;" x1="478" x2="798.5" y1="402.8906" y2="402.8906"/><text fill="#000000" font-family="sans-serif" font-size="13" lengthAdjust="spacingAndGlyphs" textLength="46" x="485" y="397.8247">break()</text><!--MD5=[456601ba81a91e6a78a35cc24c41f2f2]
@startuml
User -> Bomberman: moveup()
activate Bomberman
User -> Bomberman: movedown()
User -> Bomberman: moveright()
User -> Bomberman: moveleft()
User -> Bomberman: placebomb()
Bomberman -> Bomb: placebomb()
deactivate Bomberman
activate Bomb
Bomb -> Bomb: countdown()
Bomb -> Explotion: explode()
deactivate Bomb
activate Explotion
Explotion -> Map: explodecells()
deactivate Explotion
activate Map
Map -> BalloonEnemy: die()
Map -> WaterEnemy: die()
Map -> BreakableWall: break()
@enduml

PlantUML version 1.2019.10(Fri Sep 13 20:53:03 UTC 2019)
(GPL source distribution)
Java Runtime: OpenJDK Runtime Environment
JVM: OpenJDK 64-Bit Server VM
Java Version: 1.8.0_222-heroku-b10
Operating System: Linux
Default Encoding: UTF-8
Language: en
Country: US
--></g></svg>