<?xml version="1.0" encoding="UTF-8" standalone="no"?><svg xmlns="http://www.w3.org/2000/svg" xmlns:xlink="http://www.w3.org/1999/xlink" contentScriptType="application/ecmascript" contentStyleType="text/css" height="316px" preserveAspectRatio="none" style="width:674px;height:316px;" version="1.1" viewBox="0 0 674 316" width="674px" zoomAndPan="magnify"><defs><filter height="300%" id="fgvmmnkfwbeb3" width="300%" x="-1" y="-1"><feGaussianBlur result="blurOut" stdDeviation="2.0"/><feColorMatrix in="blurOut" result="blurOut2" type="matrix" values="0 0 0 0 0 0 0 0 0 0 0 0 0 0 0 0 0 0 .4 0"/><feOffset dx="4.0" dy="4.0" in="blurOut2" result="blurOut3"/><feBlend in="SourceGraphic" in2="blurOut3" mode="normal"/></filter></defs><g><line style="stroke: #A80036; stroke-width: 1.0; stroke-dasharray: 5.0,5.0;" x1="33" x2="33" y1="38.2969" y2="276.2266"/><line style="stroke: #A80036; stroke-width: 1.0; stroke-dasharray: 5.0,5.0;" x1="109.5" x2="109.5" y1="38.2969" y2="276.2266"/><line style="stroke: #A80036; stroke-width: 1.0; stroke-dasharray: 5.0,5.0;" x1="184.5" x2="184.5" y1="38.2969" y2="276.2266"/><line style="stroke: #A80036; stroke-width: 1.0; stroke-dasharray: 5.0,5.0;" x1="263.5" x2="263.5" y1="38.2969" y2="276.2266"/><line style="stroke: #A80036; stroke-width: 1.0; stroke-dasharray: 5.0,5.0;" x1="371.5" x2="371.5" y1="38.2969" y2="276.2266"/><line style="stroke: #A80036; stroke-width: 1.0; stroke-dasharray: 5.0,5.0;" x1="496.5" x2="496.5" y1="38.2969" y2="276.2266"/><line style="stroke: #A80036; stroke-width: 1.0; stroke-dasharray: 5.0,5.0;" x1="615.5" x2="615.5" y1="38.2969" y2="276.2266"/><rect fill="#FEFECE" filter="url(#fgvmmnkfwbeb3)" height="30.2969" style="stroke: #A80036; stroke-width: 1.5;" width="46" x="8" y="3"/><text fill="#000000" font-family="sans-serif" font-size="14" lengthAdjust="spacingAndGlyphs" textLength="32" x="15" y="22.9951">User</text><rect fill="#FEFECE" filter="url(#fgvmmnkfwbeb3)" height="30.2969" style="stroke: #A80036; stroke-width: 1.5;" width="46" x="8" y="275.2266"/><text fill="#000000" font-family="sans-serif" font-size="14" lengthAdjust="spacingAndGlyphs" textLength="32" x="15" y="295.2217">User</text><rect fill="#FEFECE" filter="url(#fgvmmnkfwbeb3)" height="30.2969" style="stroke: #A80036; stroke-width: 1.5;" width="55" x="80.5" y="3"/><text fill="#000000" font-family="sans-serif" font-size="14" lengthAdjust="spacingAndGlyphs" textLength="41" x="87.5" y="22.9951">Game</text><rect fill="#FEFECE" filter="url(#fgvmmnkfwbeb3)" height="30.2969" style="stroke: #A80036; stroke-width: 1.5;" width="55" x="80.5" y="275.2266"/><text fill="#000000" font-family="sans-serif" font-size="14" lengthAdjust="spacingAndGlyphs" textLength="41" x="87.5" y="295.2217">Game</text><rect fill="#FEFECE" filter="url(#fgvmmnkfwbeb3)" height="30.2969" style="stroke: #A80036; stroke-width: 1.5;" width="43" x="161.5" y="3"/><text fill="#000000" font-family="sans-serif" font-size="14" lengthAdjust="spacingAndGlyphs" textLength="29" x="168.5" y="22.9951">Map</text><rect fill="#FEFECE" filter="url(#fgvmmnkfwbeb3)" height="30.2969" style="stroke: #A80036; stroke-width: 1.5;" width="43" x="161.5" y="275.2266"/><text fill="#000000" font-family="sans-serif" font-size="14" lengthAdjust="spacingAndGlyphs" textLength="29" x="168.5" y="295.2217">Map</text><rect fill="#FEFECE" filter="url(#fgvmmnkfwbeb3)" height="30.2969" style="stroke: #A80036; stroke-width: 1.5;" width="77" x="223.5" y="3"/><text fill="#000000" font-family="sans-serif" font-size="14" lengthAdjust="spacingAndGlyphs" textLength="63" x="230.5" y="22.9951">FixedWall</text><rect fill="#FEFECE" filter="url(#fgvmmnkfwbeb3)" height="30.2969" style="stroke: #A80036; stroke-width: 1.5;" width="77" x="223.5" y="275.2266"/><text fill="#000000" font-family="sans-serif" font-size="14" lengthAdjust="spacingAndGlyphs" textLength="63" x="230.5" y="295.2217">FixedWall</text><rect fill="#FEFECE" filter="url(#fgvmmnkfwbeb3)" height="30.2969" style="stroke: #A80036; stroke-width: 1.5;" width="110" x="314.5" y="3"/><text fill="#000000" font-family="sans-serif" font-size="14" lengthAdjust="spacingAndGlyphs" textLength="96" x="321.5" y="22.9951">BreakableWall</text><rect fill="#FEFECE" filter="url(#fgvmmnkfwbeb3)" height="30.2969" style="stroke: #A80036; stroke-width: 1.5;" width="110" x="314.5" y="275.2266"/><text fill="#000000" font-family="sans-serif" font-size="14" lengthAdjust="spacingAndGlyphs" textLength="96" x="321.5" y="295.2217">BreakableWall</text><rect fill="#FEFECE" filter="url(#fgvmmnkfwbeb3)" height="30.2969" style="stroke: #A80036; stroke-width: 1.5;" width="112" x="438.5" y="3"/><text fill="#000000" font-family="sans-serif" font-size="14" lengthAdjust="spacingAndGlyphs" textLength="98" x="445.5" y="22.9951">BalloonEnemy</text><rect fill="#FEFECE" filter="url(#fgvmmnkfwbeb3)" height="30.2969" style="stroke: #A80036; stroke-width: 1.5;" width="112" x="438.5" y="275.2266"/><text fill="#000000" font-family="sans-serif" font-size="14" lengthAdjust="spacingAndGlyphs" textLength="98" x="445.5" y="295.2217">BalloonEnemy</text><rect fill="#FEFECE" filter="url(#fgvmmnkfwbeb3)" height="30.2969" style="stroke: #A80036; stroke-width: 1.5;" width="99" x="564.5" y="3"/><text fill="#000000" font-family="sans-serif" font-size="14" lengthAdjust="spacingAndGlyphs" textLength="85" x="571.5" y="22.9951">Bomberman</text><rect fill="#FEFECE" filter="url(#fgvmmnkfwbeb3)" height="30.2969" style="stroke: #A80036; stroke-width: 1.5;" width="99" x="564.5" y="275.2266"/><text fill="#000000" font-family="sans-serif" font-size="14" lengthAdjust="spacingAndGlyphs" textLength="85" x="571.5" y="295.2217">Bomberman</text><polygon fill="#A80036" points="98,65.4297,108,69.4297,98,73.4297,102,69.4297" style="stroke: #A80036; stroke-width: 1.0;"/><line style="stroke: #A80036; stroke-width: 1.0;" x1="33" x2="104" y1="69.4297" y2="69.4297"/><text fill="#000000" font-family="sans-serif" font-size="13" lengthAdjust="spacingAndGlyphs" textLength="53" x="40" y="64.3638">initiate()</text><polygon fill="#A80036" points="44,79.4297,34,83.4297,44,87.4297,40,83.4297" style="stroke: #A80036; stroke-width: 1.0;"/><line style="stroke: #A80036; stroke-width: 1.0; stroke-dasharray: 2.0,2.0;" x1="38" x2="109" y1="83.4297" y2="83.4297"/><polygon fill="#A80036" points="98,108.5625,108,112.5625,98,116.5625,102,112.5625" style="stroke: #A80036; stroke-width: 1.0;"/><line style="stroke: #A80036; stroke-width: 1.0;" x1="33" x2="104" y1="112.5625" y2="112.5625"/><text fill="#000000" font-family="sans-serif" font-size="13" lengthAdjust="spacingAndGlyphs" textLength="40" x="40" y="107.4966">start()</text><polygon fill="#A80036" points="173,137.6953,183,141.6953,173,145.6953,177,141.6953" style="stroke: #A80036; stroke-width: 1.0;"/><line style="stroke: #A80036; stroke-width: 1.0;" x1="110" x2="179" y1="141.6953" y2="141.6953"/><text fill="#000000" font-family="sans-serif" font-size="13" lengthAdjust="spacingAndGlyphs" textLength="51" x="117" y="136.6294">create()</text><polygon fill="#A80036" points="252,166.8281,262,170.8281,252,174.8281,256,170.8281" style="stroke: #A80036; stroke-width: 1.0;"/><line style="stroke: #A80036; stroke-width: 1.0;" x1="185" x2="258" y1="170.8281" y2="170.8281"/><text fill="#000000" font-family="sans-serif" font-size="13" lengthAdjust="spacingAndGlyphs" textLength="55" x="192" y="165.7622">appear()</text><polygon fill="#A80036" points="359.5,195.9609,369.5,199.9609,359.5,203.9609,363.5,199.9609" style="stroke: #A80036; stroke-width: 1.0;"/><line style="stroke: #A80036; stroke-width: 1.0;" x1="185" x2="365.5" y1="199.9609" y2="199.9609"/><text fill="#000000" font-family="sans-serif" font-size="13" lengthAdjust="spacingAndGlyphs" textLength="55" x="192" y="194.895">appear()</text><polygon fill="#A80036" points="484.5,225.0938,494.5,229.0938,484.5,233.0938,488.5,229.0938" style="stroke: #A80036; stroke-width: 1.0;"/><line style="stroke: #A80036; stroke-width: 1.0;" x1="185" x2="490.5" y1="229.0938" y2="229.0938"/><text fill="#000000" font-family="sans-serif" font-size="13" lengthAdjust="spacingAndGlyphs" textLength="55" x="192" y="224.0278">appear()</text><polygon fill="#A80036" points="604,254.2266,614,258.2266,604,262.2266,608,258.2266" style="stroke: #A80036; stroke-width: 1.0;"/><line style="stroke: #A80036; stroke-width: 1.0;" x1="185" x2="610" y1="258.2266" y2="258.2266"/><text fill="#000000" font-family="sans-serif" font-size="13" lengthAdjust="spacingAndGlyphs" textLength="55" x="192" y="253.1606">appear()</text><!--MD5=[37e412ff4a400a5520ff1b8b1c9c0672]
@startuml
User -> Game: initiate()
Game - -> User
User -> Game: start()
Game -> Map: create()
Map -> FixedWall: appear()
Map -> BreakableWall: appear()
Map -> BalloonEnemy: appear()
Map -> Bomberman: appear()
@enduml

PlantUML version 1.2019.10(Fri Sep 13 20:53:03 UTC 2019)
(GPL source distribution)
Java Runtime: OpenJDK Runtime Environment
JVM: OpenJDK 64-Bit Server VM
Java Version: 1.8.0_222-heroku-b10
Operating System: Linux
Default Encoding: UTF-8
Language: en
Country: US
--></g></svg>