<?xml version="1.0" encoding="UTF-8" standalone="no"?><svg xmlns="http://www.w3.org/2000/svg" xmlns:xlink="http://www.w3.org/1999/xlink" contentScriptType="application/ecmascript" contentStyleType="text/css" height="832px" preserveAspectRatio="none" style="width:1164px;height:832px;" version="1.1" viewBox="0 0 1164 832" width="1164px" zoomAndPan="magnify"><defs><filter height="300%" id="f1aavdxr95dimq" width="300%" x="-1" y="-1"><feGaussianBlur result="blurOut" stdDeviation="2.0"/><feColorMatrix in="blurOut" result="blurOut2" type="matrix" values="0 0 0 0 0 0 0 0 0 0 0 0 0 0 0 0 0 0 .4 0"/><feOffset dx="4.0" dy="4.0" in="blurOut2" result="blurOut3"/><feBlend in="SourceGraphic" in2="blurOut3" mode="normal"/></filter></defs><g><!--MD5=[b6dcce5e5ef3c84b0b048d11301373dd]
class Game--><rect fill="#FEFECE" filter="url(#f1aavdxr95dimq)" height="48" id="Game" style="stroke: #A80036; stroke-width: 1.5;" width="68" x="668" y="14.5"/><ellipse cx="683" cy="30.5" fill="#A9DCDF" rx="11" ry="11" style="stroke: #A80036; stroke-width: 1.0;"/><path d="M683.1094,25.8438 L681.9531,30.9219 L684.2813,30.9219 L683.1094,25.8438 Z M681.625,23.6094 L684.6094,23.6094 L687.9688,36 L685.5156,36 L684.75,32.9375 L681.4688,32.9375 L680.7188,36 L678.2813,36 L681.625,23.6094 Z "/><text fill="#000000" font-family="sans-serif" font-size="12" font-style="italic" lengthAdjust="spacingAndGlyphs" textLength="36" x="697" y="34.6543">Game</text><line style="stroke: #A80036; stroke-width: 1.5;" x1="669" x2="735" y1="46.5" y2="46.5"/><line style="stroke: #A80036; stroke-width: 1.5;" x1="669" x2="735" y1="54.5" y2="54.5"/><!--MD5=[1053da7555f32ea3c982e01119b403ff]
class Thing--><rect fill="#FEFECE" filter="url(#f1aavdxr95dimq)" height="176.0469" id="Thing" style="stroke: #A80036; stroke-width: 1.5;" width="112" x="646" y="129"/><ellipse cx="681.7" cy="145" fill="#A9DCDF" rx="11" ry="11" style="stroke: #A80036; stroke-width: 1.0;"/><path d="M681.8094,140.3438 L680.6531,145.4219 L682.9813,145.4219 L681.8094,140.3438 Z M680.325,138.1094 L683.3094,138.1094 L686.6688,150.5 L684.2156,150.5 L683.45,147.4375 L680.1688,147.4375 L679.4188,150.5 L676.9813,150.5 L680.325,138.1094 Z "/><text fill="#000000" font-family="sans-serif" font-size="12" font-style="italic" lengthAdjust="spacingAndGlyphs" textLength="34" x="700.3" y="149.1543">Thing</text><line style="stroke: #A80036; stroke-width: 1.5;" x1="647" x2="757" y1="161" y2="161"/><rect fill="none" height="6" style="stroke: #C82930; stroke-width: 1.0;" width="6" x="654" y="169"/><text fill="#000000" font-family="sans-serif" font-size="11" lengthAdjust="spacingAndGlyphs" textLength="65" x="666" y="175.2104">texture: Str</text><rect fill="none" height="6" style="stroke: #C82930; stroke-width: 1.0;" width="6" x="654" y="181.8047"/><text fill="#000000" font-family="sans-serif" font-size="11" lengthAdjust="spacingAndGlyphs" textLength="56" x="666" y="188.0151">hitbox: Int</text><rect fill="none" height="6" style="stroke: #C82930; stroke-width: 1.0;" width="6" x="654" y="194.6094"/><text fill="#000000" font-family="sans-serif" font-size="11" lengthAdjust="spacingAndGlyphs" textLength="86" x="666" y="200.8198">position: Int [2]</text><line style="stroke: #A80036; stroke-width: 1.5;" x1="647" x2="757" y1="207.4141" y2="207.4141"/><ellipse cx="657" cy="218.4141" fill="#84BE84" rx="3" ry="3" style="stroke: #038048; stroke-width: 1.0;"/><text fill="#000000" font-family="sans-serif" font-size="11" lengthAdjust="spacingAndGlyphs" textLength="71" x="666" y="221.6245">getPosition()</text><ellipse cx="657" cy="231.2188" fill="#84BE84" rx="3" ry="3" style="stroke: #038048; stroke-width: 1.0;"/><text fill="#000000" font-family="sans-serif" font-size="11" lengthAdjust="spacingAndGlyphs" textLength="71" x="666" y="234.4292">setPosition()</text><ellipse cx="657" cy="244.0234" fill="#84BE84" rx="3" ry="3" style="stroke: #038048; stroke-width: 1.0;"/><text fill="#000000" font-family="sans-serif" font-size="11" lengthAdjust="spacingAndGlyphs" textLength="69" x="666" y="247.2339">getTexture()</text><ellipse cx="657" cy="256.8281" fill="#84BE84" rx="3" ry="3" style="stroke: #038048; stroke-width: 1.0;"/><text fill="#000000" font-family="sans-serif" font-size="11" lengthAdjust="spacingAndGlyphs" textLength="69" x="666" y="260.0386">setTexture()</text><ellipse cx="657" cy="269.6328" fill="#84BE84" rx="3" ry="3" style="stroke: #038048; stroke-width: 1.0;"/><text fill="#000000" font-family="sans-serif" font-size="11" lengthAdjust="spacingAndGlyphs" textLength="61" x="666" y="272.8433">getHitbox()</text><ellipse cx="657" cy="282.4375" fill="#84BE84" rx="3" ry="3" style="stroke: #038048; stroke-width: 1.0;"/><text fill="#000000" font-family="sans-serif" font-size="11" lengthAdjust="spacingAndGlyphs" textLength="61" x="666" y="285.6479">setHitbox()</text><ellipse cx="657" cy="295.2422" fill="#84BE84" rx="3" ry="3" style="stroke: #038048; stroke-width: 1.0;"/><text fill="#000000" font-family="sans-serif" font-size="11" lengthAdjust="spacingAndGlyphs" textLength="48" x="666" y="298.4526">appear()</text><!--MD5=[6e59e257303d1e16cb6f7f17f2110772]
class PowerUp--><rect fill="#FEFECE" filter="url(#f1aavdxr95dimq)" height="48" id="PowerUp" style="stroke: #A80036; stroke-width: 1.5;" width="87" x="306.5" y="410"/><ellipse cx="321.5" cy="426" fill="#A9DCDF" rx="11" ry="11" style="stroke: #A80036; stroke-width: 1.0;"/><path d="M321.6094,421.3438 L320.4531,426.4219 L322.7813,426.4219 L321.6094,421.3438 Z M320.125,419.1094 L323.1094,419.1094 L326.4688,431.5 L324.0156,431.5 L323.25,428.4375 L319.9688,428.4375 L319.2188,431.5 L316.7813,431.5 L320.125,419.1094 Z "/><text fill="#000000" font-family="sans-serif" font-size="12" font-style="italic" lengthAdjust="spacingAndGlyphs" textLength="55" x="335.5" y="430.1543">PowerUp</text><line style="stroke: #A80036; stroke-width: 1.5;" x1="307.5" x2="392.5" y1="442" y2="442"/><line style="stroke: #A80036; stroke-width: 1.5;" x1="307.5" x2="392.5" y1="450" y2="450"/><!--MD5=[23868d926b4091f874f65c50fc3e197e]
class Obstacle--><rect fill="#FEFECE" filter="url(#f1aavdxr95dimq)" height="60.8047" id="Obstacle" style="stroke: #A80036; stroke-width: 1.5;" width="87" x="658.5" y="403.5"/><ellipse cx="673.5" cy="419.5" fill="#A9DCDF" rx="11" ry="11" style="stroke: #A80036; stroke-width: 1.0;"/><path d="M673.6094,414.8438 L672.4531,419.9219 L674.7813,419.9219 L673.6094,414.8438 Z M672.125,412.6094 L675.1094,412.6094 L678.4688,425 L676.0156,425 L675.25,421.9375 L671.9688,421.9375 L671.2188,425 L668.7813,425 L672.125,412.6094 Z "/><text fill="#000000" font-family="sans-serif" font-size="12" font-style="italic" lengthAdjust="spacingAndGlyphs" textLength="55" x="687.5" y="423.6543">Obstacle</text><line style="stroke: #A80036; stroke-width: 1.5;" x1="659.5" x2="744.5" y1="435.5" y2="435.5"/><line style="stroke: #A80036; stroke-width: 1.5;" x1="659.5" x2="744.5" y1="443.5" y2="443.5"/><ellipse cx="669.5" cy="454.5" fill="#84BE84" rx="3" ry="3" style="stroke: #038048; stroke-width: 1.0;"/><text fill="#000000" font-family="sans-serif" font-size="11" lengthAdjust="spacingAndGlyphs" textLength="48" x="678.5" y="457.7104">appear()</text><!--MD5=[a3b917835a762d02422040312cc27281]
class MovingThing--><rect fill="#FEFECE" filter="url(#f1aavdxr95dimq)" height="137.6328" id="MovingThing" style="stroke: #A80036; stroke-width: 1.5;" width="111" x="861.5" y="365"/><ellipse cx="877.4" cy="381" fill="#A9DCDF" rx="11" ry="11" style="stroke: #A80036; stroke-width: 1.0;"/><path d="M877.5094,376.3438 L876.3531,381.4219 L878.6813,381.4219 L877.5094,376.3438 Z M876.025,374.1094 L879.0094,374.1094 L882.3688,386.5 L879.9156,386.5 L879.15,383.4375 L875.8688,383.4375 L875.1188,386.5 L872.6813,386.5 L876.025,374.1094 Z "/><text fill="#000000" font-family="sans-serif" font-size="12" font-style="italic" lengthAdjust="spacingAndGlyphs" textLength="77" x="891.6" y="385.1543">MovingThing</text><line style="stroke: #A80036; stroke-width: 1.5;" x1="862.5" x2="971.5" y1="397" y2="397"/><rect fill="none" height="6" style="stroke: #C82930; stroke-width: 1.0;" width="6" x="869.5" y="405"/><text fill="#000000" font-family="sans-serif" font-size="11" lengthAdjust="spacingAndGlyphs" textLength="57" x="881.5" y="411.2104">speed: Int</text><rect fill="none" height="6" style="stroke: #C82930; stroke-width: 1.0;" width="6" x="869.5" y="417.8047"/><text fill="#000000" font-family="sans-serif" font-size="11" lengthAdjust="spacingAndGlyphs" textLength="71" x="881.5" y="424.0151">direction: Int</text><line style="stroke: #A80036; stroke-width: 1.5;" x1="862.5" x2="971.5" y1="430.6094" y2="430.6094"/><rect fill="#F24D5C" height="6" style="stroke: #C82930; stroke-width: 1.0;" width="6" x="869.5" y="438.6094"/><text fill="#000000" font-family="sans-serif" font-size="11" lengthAdjust="spacingAndGlyphs" textLength="85" x="881.5" y="444.8198">pointTowards()</text><rect fill="#F24D5C" height="6" style="stroke: #C82930; stroke-width: 1.0;" width="6" x="869.5" y="451.4141"/><text fill="#000000" font-family="sans-serif" font-size="11" lengthAdjust="spacingAndGlyphs" textLength="85" x="881.5" y="457.6245">moveForward()</text><ellipse cx="872.5" cy="467.2188" fill="#84BE84" rx="3" ry="3" style="stroke: #038048; stroke-width: 1.0;"/><text fill="#000000" font-family="sans-serif" font-size="11" lengthAdjust="spacingAndGlyphs" textLength="62" x="881.5" y="470.4292">getSpeed()</text><ellipse cx="872.5" cy="480.0234" fill="#84BE84" rx="3" ry="3" style="stroke: #038048; stroke-width: 1.0;"/><text fill="#000000" font-family="sans-serif" font-size="11" lengthAdjust="spacingAndGlyphs" textLength="62" x="881.5" y="483.2339">setSpeed()</text><ellipse cx="872.5" cy="492.8281" fill="#84BE84" rx="3" ry="3" style="stroke: #038048; stroke-width: 1.0;"/><text fill="#000000" font-family="sans-serif" font-size="11" lengthAdjust="spacingAndGlyphs" textLength="25" x="881.5" y="496.0386">die()</text><!--MD5=[7505e286249b15c81eb830586b01f924]
class Bomb--><rect fill="#FEFECE" filter="url(#f1aavdxr95dimq)" height="112.0234" id="Bomb" style="stroke: #A80036; stroke-width: 1.5;" width="113" x="585.5" y="576"/><ellipse cx="621.2" cy="592" fill="#ADD1B2" rx="11" ry="11" style="stroke: #A80036; stroke-width: 1.0;"/><path d="M624.1688,597.6406 Q623.5906,597.9375 622.95,598.0859 Q622.3094,598.2344 621.6063,598.2344 Q619.1063,598.2344 617.7859,596.5859 Q616.4656,594.9375 616.4656,591.8125 Q616.4656,588.6875 617.7859,587.0313 Q619.1063,585.375 621.6063,585.375 Q622.3094,585.375 622.9578,585.5313 Q623.6063,585.6875 624.1688,585.9844 L624.1688,588.7031 Q623.5438,588.125 622.95,587.8516 Q622.3563,587.5781 621.7313,587.5781 Q620.3875,587.5781 619.7,588.6484 Q619.0125,589.7188 619.0125,591.8125 Q619.0125,593.9063 619.7,594.9766 Q620.3875,596.0469 621.7313,596.0469 Q622.3563,596.0469 622.95,595.7734 Q623.5438,595.5 624.1688,594.9219 L624.1688,597.6406 Z "/><text fill="#000000" font-family="sans-serif" font-size="12" lengthAdjust="spacingAndGlyphs" textLength="35" x="639.8" y="596.1543">Bomb</text><line style="stroke: #A80036; stroke-width: 1.5;" x1="586.5" x2="697.5" y1="608" y2="608"/><rect fill="none" height="6" style="stroke: #C82930; stroke-width: 1.0;" width="6" x="593.5" y="616"/><text fill="#000000" font-family="sans-serif" font-size="11" lengthAdjust="spacingAndGlyphs" textLength="45" x="605.5" y="622.2104">position</text><rect fill="none" height="6" style="stroke: #C82930; stroke-width: 1.0;" width="6" x="593.5" y="628.8047"/><text fill="#000000" font-family="sans-serif" font-size="11" lengthAdjust="spacingAndGlyphs" textLength="87" x="605.5" y="635.0151">explorionRange</text><rect fill="none" height="6" style="stroke: #C82930; stroke-width: 1.0;" width="6" x="593.5" y="641.6094"/><text fill="#000000" font-family="sans-serif" font-size="11" lengthAdjust="spacingAndGlyphs" textLength="79" x="605.5" y="647.8198">explotionTime</text><line style="stroke: #A80036; stroke-width: 1.5;" x1="586.5" x2="697.5" y1="654.4141" y2="654.4141"/><ellipse cx="596.5" cy="665.4141" fill="#84BE84" rx="3" ry="3" style="stroke: #038048; stroke-width: 1.0;"/><text fill="#000000" font-family="sans-serif" font-size="11" lengthAdjust="spacingAndGlyphs" textLength="38" x="605.5" y="668.6245">place()</text><ellipse cx="596.5" cy="678.2188" fill="#84BE84" rx="3" ry="3" style="stroke: #038048; stroke-width: 1.0;"/><text fill="#000000" font-family="sans-serif" font-size="11" lengthAdjust="spacingAndGlyphs" textLength="52" x="605.5" y="681.4292">explode()</text><!--MD5=[08dfe6c59ed9ecb4018cfd2b80128be4]
class Wall--><rect fill="#FEFECE" filter="url(#f1aavdxr95dimq)" height="48" id="Wall" style="stroke: #A80036; stroke-width: 1.5;" width="57" x="733.5" y="608"/><ellipse cx="748.5" cy="624" fill="#A9DCDF" rx="11" ry="11" style="stroke: #A80036; stroke-width: 1.0;"/><path d="M748.6094,619.3438 L747.4531,624.4219 L749.7813,624.4219 L748.6094,619.3438 Z M747.125,617.1094 L750.1094,617.1094 L753.4688,629.5 L751.0156,629.5 L750.25,626.4375 L746.9688,626.4375 L746.2188,629.5 L743.7813,629.5 L747.125,617.1094 Z "/><text fill="#000000" font-family="sans-serif" font-size="12" font-style="italic" lengthAdjust="spacingAndGlyphs" textLength="25" x="762.5" y="628.1543">Wall</text><line style="stroke: #A80036; stroke-width: 1.5;" x1="734.5" x2="789.5" y1="640" y2="640"/><line style="stroke: #A80036; stroke-width: 1.5;" x1="734.5" x2="789.5" y1="648" y2="648"/><!--MD5=[3ba042c48ae2d275d9eabe2cae23beff]
class PUincreaseExplotion--><rect fill="#FEFECE" filter="url(#f1aavdxr95dimq)" height="60.8047" id="PUincreaseExplotion" style="stroke: #A80036; stroke-width: 1.5;" width="160" x="6" y="601.5"/><ellipse cx="21" cy="617.5" fill="#ADD1B2" rx="11" ry="11" style="stroke: #A80036; stroke-width: 1.0;"/><path d="M23.9688,623.1406 Q23.3906,623.4375 22.75,623.5859 Q22.1094,623.7344 21.4063,623.7344 Q18.9063,623.7344 17.5859,622.0859 Q16.2656,620.4375 16.2656,617.3125 Q16.2656,614.1875 17.5859,612.5313 Q18.9063,610.875 21.4063,610.875 Q22.1094,610.875 22.7578,611.0313 Q23.4063,611.1875 23.9688,611.4844 L23.9688,614.2031 Q23.3438,613.625 22.75,613.3516 Q22.1563,613.0781 21.5313,613.0781 Q20.1875,613.0781 19.5,614.1484 Q18.8125,615.2188 18.8125,617.3125 Q18.8125,619.4063 19.5,620.4766 Q20.1875,621.5469 21.5313,621.5469 Q22.1563,621.5469 22.75,621.2734 Q23.3438,621 23.9688,620.4219 L23.9688,623.1406 Z "/><text fill="#000000" font-family="sans-serif" font-size="12" lengthAdjust="spacingAndGlyphs" textLength="128" x="35" y="621.6543">PUincreaseExplotion</text><line style="stroke: #A80036; stroke-width: 1.5;" x1="7" x2="165" y1="633.5" y2="633.5"/><line style="stroke: #A80036; stroke-width: 1.5;" x1="7" x2="165" y1="641.5" y2="641.5"/><ellipse cx="17" cy="652.5" fill="#84BE84" rx="3" ry="3" style="stroke: #038048; stroke-width: 1.0;"/><text fill="#000000" font-family="sans-serif" font-size="11" lengthAdjust="spacingAndGlyphs" textLength="60" x="26" y="655.7104">consume()</text><!--MD5=[780e145dd7bfd4f94745f274dad997d9]
class PUspeedUp--><rect fill="#FEFECE" filter="url(#f1aavdxr95dimq)" height="60.8047" id="PUspeedUp" style="stroke: #A80036; stroke-width: 1.5;" width="105" x="201.5" y="601.5"/><ellipse cx="216.5" cy="617.5" fill="#ADD1B2" rx="11" ry="11" style="stroke: #A80036; stroke-width: 1.0;"/><path d="M219.4688,623.1406 Q218.8906,623.4375 218.25,623.5859 Q217.6094,623.7344 216.9063,623.7344 Q214.4063,623.7344 213.0859,622.0859 Q211.7656,620.4375 211.7656,617.3125 Q211.7656,614.1875 213.0859,612.5313 Q214.4063,610.875 216.9063,610.875 Q217.6094,610.875 218.2578,611.0313 Q218.9063,611.1875 219.4688,611.4844 L219.4688,614.2031 Q218.8438,613.625 218.25,613.3516 Q217.6563,613.0781 217.0313,613.0781 Q215.6875,613.0781 215,614.1484 Q214.3125,615.2188 214.3125,617.3125 Q214.3125,619.4063 215,620.4766 Q215.6875,621.5469 217.0313,621.5469 Q217.6563,621.5469 218.25,621.2734 Q218.8438,621 219.4688,620.4219 L219.4688,623.1406 Z "/><text fill="#000000" font-family="sans-serif" font-size="12" lengthAdjust="spacingAndGlyphs" textLength="73" x="230.5" y="621.6543">PUspeedUp</text><line style="stroke: #A80036; stroke-width: 1.5;" x1="202.5" x2="305.5" y1="633.5" y2="633.5"/><line style="stroke: #A80036; stroke-width: 1.5;" x1="202.5" x2="305.5" y1="641.5" y2="641.5"/><ellipse cx="212.5" cy="652.5" fill="#84BE84" rx="3" ry="3" style="stroke: #038048; stroke-width: 1.0;"/><text fill="#000000" font-family="sans-serif" font-size="11" lengthAdjust="spacingAndGlyphs" textLength="60" x="221.5" y="655.7104">consume()</text><!--MD5=[94e42c466a944e846404667d4d880797]
class PUmoreSimultaneousBombs--><rect fill="#FEFECE" filter="url(#f1aavdxr95dimq)" height="60.8047" id="PUmoreSimultaneousBombs" style="stroke: #A80036; stroke-width: 1.5;" width="208" x="342" y="601.5"/><ellipse cx="357" cy="617.5" fill="#ADD1B2" rx="11" ry="11" style="stroke: #A80036; stroke-width: 1.0;"/><path d="M359.9688,623.1406 Q359.3906,623.4375 358.75,623.5859 Q358.1094,623.7344 357.4063,623.7344 Q354.9063,623.7344 353.5859,622.0859 Q352.2656,620.4375 352.2656,617.3125 Q352.2656,614.1875 353.5859,612.5313 Q354.9063,610.875 357.4063,610.875 Q358.1094,610.875 358.7578,611.0313 Q359.4063,611.1875 359.9688,611.4844 L359.9688,614.2031 Q359.3438,613.625 358.75,613.3516 Q358.1563,613.0781 357.5313,613.0781 Q356.1875,613.0781 355.5,614.1484 Q354.8125,615.2188 354.8125,617.3125 Q354.8125,619.4063 355.5,620.4766 Q356.1875,621.5469 357.5313,621.5469 Q358.1563,621.5469 358.75,621.2734 Q359.3438,621 359.9688,620.4219 L359.9688,623.1406 Z "/><text fill="#000000" font-family="sans-serif" font-size="12" lengthAdjust="spacingAndGlyphs" textLength="176" x="371" y="621.6543">PUmoreSimultaneousBombs</text><line style="stroke: #A80036; stroke-width: 1.5;" x1="343" x2="549" y1="633.5" y2="633.5"/><line style="stroke: #A80036; stroke-width: 1.5;" x1="343" x2="549" y1="641.5" y2="641.5"/><ellipse cx="353" cy="652.5" fill="#84BE84" rx="3" ry="3" style="stroke: #038048; stroke-width: 1.0;"/><text fill="#000000" font-family="sans-serif" font-size="11" lengthAdjust="spacingAndGlyphs" textLength="60" x="362" y="655.7104">consume()</text><!--MD5=[80c532e980642ebbe770e7ed91e479d0]
class Enemy--><rect fill="#FEFECE" filter="url(#f1aavdxr95dimq)" height="48" id="Enemy" style="stroke: #A80036; stroke-width: 1.5;" width="73" x="880.5" y="608"/><ellipse cx="895.5" cy="624" fill="#A9DCDF" rx="11" ry="11" style="stroke: #A80036; stroke-width: 1.0;"/><path d="M895.6094,619.3438 L894.4531,624.4219 L896.7813,624.4219 L895.6094,619.3438 Z M894.125,617.1094 L897.1094,617.1094 L900.4688,629.5 L898.0156,629.5 L897.25,626.4375 L893.9688,626.4375 L893.2188,629.5 L890.7813,629.5 L894.125,617.1094 Z "/><text fill="#000000" font-family="sans-serif" font-size="12" font-style="italic" lengthAdjust="spacingAndGlyphs" textLength="41" x="909.5" y="628.1543">Enemy</text><line style="stroke: #A80036; stroke-width: 1.5;" x1="881.5" x2="952.5" y1="640" y2="640"/><line style="stroke: #A80036; stroke-width: 1.5;" x1="881.5" x2="952.5" y1="648" y2="648"/><!--MD5=[a9ec369fbecb163f2166c16baba0d628]
class Bomberman--><rect fill="#FEFECE" filter="url(#f1aavdxr95dimq)" height="137.6328" id="Bomberman" style="stroke: #A80036; stroke-width: 1.5;" width="164" x="989" y="563"/><ellipse cx="1029.65" cy="579" fill="#ADD1B2" rx="11" ry="11" style="stroke: #A80036; stroke-width: 1.0;"/><path d="M1032.6188,584.6406 Q1032.0406,584.9375 1031.4,585.0859 Q1030.7594,585.2344 1030.0563,585.2344 Q1027.5563,585.2344 1026.2359,583.5859 Q1024.9156,581.9375 1024.9156,578.8125 Q1024.9156,575.6875 1026.2359,574.0313 Q1027.5563,572.375 1030.0563,572.375 Q1030.7594,572.375 1031.4078,572.5313 Q1032.0563,572.6875 1032.6188,572.9844 L1032.6188,575.7031 Q1031.9938,575.125 1031.4,574.8516 Q1030.8063,574.5781 1030.1813,574.5781 Q1028.8375,574.5781 1028.15,575.6484 Q1027.4625,576.7188 1027.4625,578.8125 Q1027.4625,580.9063 1028.15,581.9766 Q1028.8375,583.0469 1030.1813,583.0469 Q1030.8063,583.0469 1031.4,582.7734 Q1031.9938,582.5 1032.6188,581.9219 L1032.6188,584.6406 Z "/><text fill="#000000" font-family="sans-serif" font-size="12" lengthAdjust="spacingAndGlyphs" textLength="75" x="1049.35" y="583.1543">Bomberman</text><line style="stroke: #A80036; stroke-width: 1.5;" x1="990" x2="1152" y1="595" y2="595"/><rect fill="none" height="6" style="stroke: #C82930; stroke-width: 1.0;" width="6" x="997" y="603"/><text fill="#000000" font-family="sans-serif" font-size="11" lengthAdjust="spacingAndGlyphs" textLength="26" x="1009" y="609.2104">lives</text><rect fill="none" height="6" style="stroke: #C82930; stroke-width: 1.0;" width="6" x="997" y="615.8047"/><text fill="#000000" font-family="sans-serif" font-size="11" lengthAdjust="spacingAndGlyphs" textLength="57" x="1009" y="622.0151">powerUps</text><rect fill="none" height="6" style="stroke: #C82930; stroke-width: 1.0;" width="6" x="997" y="628.6094"/><text fill="#000000" font-family="sans-serif" font-size="11" lengthAdjust="spacingAndGlyphs" textLength="138" x="1009" y="634.8198">nOfSimultaneousBombs</text><line style="stroke: #A80036; stroke-width: 1.5;" x1="990" x2="1152" y1="641.4141" y2="641.4141"/><ellipse cx="1000" cy="652.4141" fill="#84BE84" rx="3" ry="3" style="stroke: #038048; stroke-width: 1.0;"/><text fill="#000000" font-family="sans-serif" font-size="11" lengthAdjust="spacingAndGlyphs" textLength="55" x="1009" y="655.6245">getLives()</text><ellipse cx="1000" cy="665.2188" fill="#84BE84" rx="3" ry="3" style="stroke: #038048; stroke-width: 1.0;"/><text fill="#000000" font-family="sans-serif" font-size="11" lengthAdjust="spacingAndGlyphs" textLength="55" x="1009" y="668.4292">setLives()</text><ellipse cx="1000" cy="678.0234" fill="#84BE84" rx="3" ry="3" style="stroke: #038048; stroke-width: 1.0;"/><text fill="#000000" font-family="sans-serif" font-size="11" lengthAdjust="spacingAndGlyphs" textLength="83" x="1009" y="681.2339">getPowerUps()</text><ellipse cx="1000" cy="690.8281" fill="#84BE84" rx="3" ry="3" style="stroke: #038048; stroke-width: 1.0;"/><text fill="#000000" font-family="sans-serif" font-size="11" lengthAdjust="spacingAndGlyphs" textLength="83" x="1009" y="694.0386">setPowerUps()</text><!--MD5=[04e89ad7b8a75dac345b048eab0b245a]
class FixedWall--><rect fill="#FEFECE" filter="url(#f1aavdxr95dimq)" height="48" id="FixedWall" style="stroke: #A80036; stroke-width: 1.5;" width="89" x="577.5" y="767.5"/><ellipse cx="592.5" cy="783.5" fill="#ADD1B2" rx="11" ry="11" style="stroke: #A80036; stroke-width: 1.0;"/><path d="M595.4688,789.1406 Q594.8906,789.4375 594.25,789.5859 Q593.6094,789.7344 592.9063,789.7344 Q590.4063,789.7344 589.0859,788.0859 Q587.7656,786.4375 587.7656,783.3125 Q587.7656,780.1875 589.0859,778.5313 Q590.4063,776.875 592.9063,776.875 Q593.6094,776.875 594.2578,777.0313 Q594.9063,777.1875 595.4688,777.4844 L595.4688,780.2031 Q594.8438,779.625 594.25,779.3516 Q593.6563,779.0781 593.0313,779.0781 Q591.6875,779.0781 591,780.1484 Q590.3125,781.2188 590.3125,783.3125 Q590.3125,785.4063 591,786.4766 Q591.6875,787.5469 593.0313,787.5469 Q593.6563,787.5469 594.25,787.2734 Q594.8438,787 595.4688,786.4219 L595.4688,789.1406 Z "/><text fill="#000000" font-family="sans-serif" font-size="12" lengthAdjust="spacingAndGlyphs" textLength="57" x="606.5" y="787.6543">FixedWall</text><line style="stroke: #A80036; stroke-width: 1.5;" x1="578.5" x2="665.5" y1="799.5" y2="799.5"/><line style="stroke: #A80036; stroke-width: 1.5;" x1="578.5" x2="665.5" y1="807.5" y2="807.5"/><!--MD5=[730e4fa3b2e7cb9bdaa3f0c965f30717]
class BreakableWall--><rect fill="#FEFECE" filter="url(#f1aavdxr95dimq)" height="60.8047" id="BreakableWall" style="stroke: #A80036; stroke-width: 1.5;" width="120" x="702" y="761"/><ellipse cx="717" cy="777" fill="#ADD1B2" rx="11" ry="11" style="stroke: #A80036; stroke-width: 1.0;"/><path d="M719.9688,782.6406 Q719.3906,782.9375 718.75,783.0859 Q718.1094,783.2344 717.4063,783.2344 Q714.9063,783.2344 713.5859,781.5859 Q712.2656,779.9375 712.2656,776.8125 Q712.2656,773.6875 713.5859,772.0313 Q714.9063,770.375 717.4063,770.375 Q718.1094,770.375 718.7578,770.5313 Q719.4063,770.6875 719.9688,770.9844 L719.9688,773.7031 Q719.3438,773.125 718.75,772.8516 Q718.1563,772.5781 717.5313,772.5781 Q716.1875,772.5781 715.5,773.6484 Q714.8125,774.7188 714.8125,776.8125 Q714.8125,778.9063 715.5,779.9766 Q716.1875,781.0469 717.5313,781.0469 Q718.1563,781.0469 718.75,780.7734 Q719.3438,780.5 719.9688,779.9219 L719.9688,782.6406 Z "/><text fill="#000000" font-family="sans-serif" font-size="12" lengthAdjust="spacingAndGlyphs" textLength="88" x="731" y="781.1543">BreakableWall</text><line style="stroke: #A80036; stroke-width: 1.5;" x1="703" x2="821" y1="793" y2="793"/><line style="stroke: #A80036; stroke-width: 1.5;" x1="703" x2="821" y1="801" y2="801"/><ellipse cx="713" cy="812" fill="#84BE84" rx="3" ry="3" style="stroke: #038048; stroke-width: 1.0;"/><text fill="#000000" font-family="sans-serif" font-size="11" lengthAdjust="spacingAndGlyphs" textLength="40" x="722" y="815.2104">break()</text><!--MD5=[6afc5b111b776f49d5690a55b12c7e08]
class BalloonEnemy--><rect fill="#FEFECE" filter="url(#f1aavdxr95dimq)" height="48" id="BalloonEnemy" style="stroke: #A80036; stroke-width: 1.5;" width="119" x="857.5" y="767.5"/><ellipse cx="872.5" cy="783.5" fill="#ADD1B2" rx="11" ry="11" style="stroke: #A80036; stroke-width: 1.0;"/><path d="M875.4688,789.1406 Q874.8906,789.4375 874.25,789.5859 Q873.6094,789.7344 872.9063,789.7344 Q870.4063,789.7344 869.0859,788.0859 Q867.7656,786.4375 867.7656,783.3125 Q867.7656,780.1875 869.0859,778.5313 Q870.4063,776.875 872.9063,776.875 Q873.6094,776.875 874.2578,777.0313 Q874.9063,777.1875 875.4688,777.4844 L875.4688,780.2031 Q874.8438,779.625 874.25,779.3516 Q873.6563,779.0781 873.0313,779.0781 Q871.6875,779.0781 871,780.1484 Q870.3125,781.2188 870.3125,783.3125 Q870.3125,785.4063 871,786.4766 Q871.6875,787.5469 873.0313,787.5469 Q873.6563,787.5469 874.25,787.2734 Q874.8438,787 875.4688,786.4219 L875.4688,789.1406 Z "/><text fill="#000000" font-family="sans-serif" font-size="12" lengthAdjust="spacingAndGlyphs" textLength="87" x="886.5" y="787.6543">BalloonEnemy</text><line style="stroke: #A80036; stroke-width: 1.5;" x1="858.5" x2="975.5" y1="799.5" y2="799.5"/><line style="stroke: #A80036; stroke-width: 1.5;" x1="858.5" x2="975.5" y1="807.5" y2="807.5"/><!--MD5=[b6eba6550d19bb0b21eef843f95ec128]
class WaterEnemy--><rect fill="#FEFECE" filter="url(#f1aavdxr95dimq)" height="48" id="WaterEnemy" style="stroke: #A80036; stroke-width: 1.5;" width="110" x="1012" y="767.5"/><ellipse cx="1027" cy="783.5" fill="#ADD1B2" rx="11" ry="11" style="stroke: #A80036; stroke-width: 1.0;"/><path d="M1029.9688,789.1406 Q1029.3906,789.4375 1028.75,789.5859 Q1028.1094,789.7344 1027.4063,789.7344 Q1024.9063,789.7344 1023.5859,788.0859 Q1022.2656,786.4375 1022.2656,783.3125 Q1022.2656,780.1875 1023.5859,778.5313 Q1024.9063,776.875 1027.4063,776.875 Q1028.1094,776.875 1028.7578,777.0313 Q1029.4063,777.1875 1029.9688,777.4844 L1029.9688,780.2031 Q1029.3438,779.625 1028.75,779.3516 Q1028.1563,779.0781 1027.5313,779.0781 Q1026.1875,779.0781 1025.5,780.1484 Q1024.8125,781.2188 1024.8125,783.3125 Q1024.8125,785.4063 1025.5,786.4766 Q1026.1875,787.5469 1027.5313,787.5469 Q1028.1563,787.5469 1028.75,787.2734 Q1029.3438,787 1029.9688,786.4219 L1029.9688,789.1406 Z "/><text fill="#000000" font-family="sans-serif" font-size="12" lengthAdjust="spacingAndGlyphs" textLength="78" x="1041" y="787.6543">WaterEnemy</text><line style="stroke: #A80036; stroke-width: 1.5;" x1="1013" x2="1121" y1="799.5" y2="799.5"/><line style="stroke: #A80036; stroke-width: 1.5;" x1="1013" x2="1121" y1="807.5" y2="807.5"/><!--MD5=[4dfc6a72b8dd60daa1b635d583ff79da]
class Map--><rect fill="#FEFECE" filter="url(#f1aavdxr95dimq)" height="60.8047" id="Map" style="stroke: #A80036; stroke-width: 1.5;" width="70" x="771" y="8"/><ellipse cx="791.4" cy="24" fill="#A9DCDF" rx="11" ry="11" style="stroke: #A80036; stroke-width: 1.0;"/><path d="M791.5094,19.3438 L790.3531,24.4219 L792.6813,24.4219 L791.5094,19.3438 Z M790.025,17.1094 L793.0094,17.1094 L796.3688,29.5 L793.9156,29.5 L793.15,26.4375 L789.8688,26.4375 L789.1188,29.5 L786.6813,29.5 L790.025,17.1094 Z "/><text fill="#000000" font-family="sans-serif" font-size="12" font-style="italic" lengthAdjust="spacingAndGlyphs" textLength="26" x="806.6" y="28.1543">Map</text><line style="stroke: #A80036; stroke-width: 1.5;" x1="772" x2="840" y1="40" y2="40"/><line style="stroke: #A80036; stroke-width: 1.5;" x1="772" x2="840" y1="48" y2="48"/><ellipse cx="782" cy="59" fill="#84BE84" rx="3" ry="3" style="stroke: #038048; stroke-width: 1.0;"/><text fill="#000000" font-family="sans-serif" font-size="11" lengthAdjust="spacingAndGlyphs" textLength="44" x="791" y="62.2104">create()</text><!--MD5=[e088437daf447c0f11a7934f2b80b8ac]
reverse link Game to Thing--><path d="M702,75.8435 C702,91.3804 702,110.1338 702,128.8245 " fill="none" id="Game&lt;-Thing" style="stroke: #A80036; stroke-width: 1.0;"/><polygon fill="#A80036" points="702,62.5733,698,68.5733,702,74.5733,706,68.5733,702,62.5733" style="stroke: #A80036; stroke-width: 1.0;"/><!--MD5=[fa3e11afcbd89572fec6715bbb96a52c]
reverse link Thing to PowerUp--><path d="M628.5905,262.2553 C555.7027,307.1889 446.749,374.3564 389.072,409.913 " fill="none" id="Thing&lt;-PowerUp" style="stroke: #A80036; stroke-width: 1.0;"/><polygon fill="none" points="625.137,256.161,645.8353,251.6242,632.4839,268.0784,625.137,256.161" style="stroke: #A80036; stroke-width: 1.0;"/><!--MD5=[cd466ba2e28d864da139e4c387b1f8f7]
reverse link Thing to Obstacle--><path d="M702,325.4853 C702,354.1118 702,382.7397 702,403.3981 " fill="none" id="Thing&lt;-Obstacle" style="stroke: #A80036; stroke-width: 1.0;"/><polygon fill="none" points="695.0001,325.2622,702,305.2622,709.0001,325.2622,695.0001,325.2622" style="stroke: #A80036; stroke-width: 1.0;"/><!--MD5=[c6452ee5bae879f617dc8bd2b545722a]
reverse link Thing to MovingThing--><path d="M772.4624,288.1179 C801.368,317.2924 834.3439,350.575 861.4924,377.9761 " fill="none" id="Thing&lt;-MovingThing" style="stroke: #A80036; stroke-width: 1.0;"/><polygon fill="none" points="767.3118,292.865,758.2079,273.7308,777.257,283.0114,767.3118,292.865" style="stroke: #A80036; stroke-width: 1.0;"/><!--MD5=[1387bb6451bb2d686b47215b8ac4bd5e]
reverse link Obstacle to Bomb--><path d="M686.8755,483.9107 C678.3843,511.9317 667.7645,546.9771 658.9877,575.9405 " fill="none" id="Obstacle&lt;-Bomb" style="stroke: #A80036; stroke-width: 1.0;"/><polygon fill="none" points="680.2571,481.614,692.7565,464.5036,693.6554,485.6741,680.2571,481.614" style="stroke: #A80036; stroke-width: 1.0;"/><!--MD5=[f608843c68e28c4cb8f09ab5d5f41afa]
reverse link Obstacle to Wall--><path d="M717.0658,483.7171 C729.0583,523.2925 745.3251,576.973 754.6379,607.705 " fill="none" id="Obstacle&lt;-Wall" style="stroke: #A80036; stroke-width: 1.0;"/><polygon fill="none" points="710.3446,485.6741,711.2435,464.5036,723.7429,481.614,710.3446,485.6741" style="stroke: #A80036; stroke-width: 1.0;"/><!--MD5=[79110fa08a01380c407134de496bd5f0]
reverse link PowerUp to PUincreaseExplotion--><path d="M301.7261,470.2054 C251.6386,507.7711 174.1616,565.8788 126.962,601.2785 " fill="none" id="PowerUp&lt;-PUincreaseExplotion" style="stroke: #A80036; stroke-width: 1.0;"/><polygon fill="none" points="297.6923,464.4808,317.8924,458.0807,306.0923,475.6808,297.6923,464.4808" style="stroke: #A80036; stroke-width: 1.0;"/><!--MD5=[23b7e3a224ec9606e69a8806987c1830]
reverse link PowerUp to PUspeedUp--><path d="M329.4044,476.4784 C311.2024,514.0201 285.094,567.8687 268.8618,601.3475 " fill="none" id="PowerUp&lt;-PUspeedUp" style="stroke: #A80036; stroke-width: 1.0;"/><polygon fill="none" points="323.2043,473.221,338.2285,458.2787,335.8017,479.3289,323.2043,473.221" style="stroke: #A80036; stroke-width: 1.0;"/><!--MD5=[d746f57d26bfb2b7dacde5965fcf1943]
reverse link PowerUp to PUmoreSimultaneousBombs--><path d="M370.5956,476.4784 C388.7976,514.0201 414.906,567.8687 431.1382,601.3475 " fill="none" id="PowerUp&lt;-PUmoreSimultaneousBombs" style="stroke: #A80036; stroke-width: 1.0;"/><polygon fill="none" points="364.1983,479.3289,361.7715,458.2787,376.7957,473.221,364.1983,479.3289" style="stroke: #A80036; stroke-width: 1.0;"/><!--MD5=[e3b5f7bae792d0d1a0d4c90d58156bc7]
reverse link MovingThing to Enemy--><path d="M917,523.2909 C917,554.2634 917,586.5158 917,607.7647 " fill="none" id="MovingThing&lt;-Enemy" style="stroke: #A80036; stroke-width: 1.0;"/><polygon fill="none" points="910.0001,523.2508,917,503.2508,924.0001,523.2508,910.0001,523.2508" style="stroke: #A80036; stroke-width: 1.0;"/><!--MD5=[be30e438aa15b00b806d50b41c71827d]
reverse link MovingThing to Bomberman--><path d="M983.4079,519.3816 C994.6833,533.8785 1006.2676,548.7726 1017.1687,562.7883 " fill="none" id="MovingThing&lt;-Bomberman" style="stroke: #A80036; stroke-width: 1.0;"/><polygon fill="none" points="977.6151,523.3355,970.8617,503.2508,988.666,514.7403,977.6151,523.3355" style="stroke: #A80036; stroke-width: 1.0;"/><!--MD5=[c218897b8d81846af83e70c0fd16c19c]
reverse link Wall to FixedWall--><path d="M736.7477,673.0507 C730.3546,682.5161 723.2369,692.3412 716,701 C695.8066,725.161 669.8294,749.7654 650.3025,767.2087 " fill="none" id="Wall&lt;-FixedWall" style="stroke: #A80036; stroke-width: 1.0;"/><polygon fill="none" points="730.9083,669.1898,747.6627,656.2171,742.655,676.8065,730.9083,669.1898" style="stroke: #A80036; stroke-width: 1.0;"/><!--MD5=[18087c57f954b2007d1b63cfb451edab]
reverse link Wall to BreakableWall--><path d="M762,676.4267 C762,703.275 762,736.8172 762,760.7483 " fill="none" id="Wall&lt;-BreakableWall" style="stroke: #A80036; stroke-width: 1.0;"/><polygon fill="none" points="755.0001,676.2247,762,656.2246,769.0001,676.2246,755.0001,676.2247" style="stroke: #A80036; stroke-width: 1.0;"/><!--MD5=[1350d5e8c62c43a040c9873e69576fa4]
reverse link Enemy to BalloonEnemy--><path d="M917,676.3518 C917,705.7681 917,743.2456 917,767.3092 " fill="none" id="Enemy&lt;-BalloonEnemy" style="stroke: #A80036; stroke-width: 1.0;"/><polygon fill="none" points="910.0001,676.2247,917,656.2246,924.0001,676.2246,910.0001,676.2247" style="stroke: #A80036; stroke-width: 1.0;"/><!--MD5=[e0833ae4d71d0e09a25d5b4c22db4dea]
reverse link Enemy to WaterEnemy--><path d="M947.5864,672.2753 C955.3064,681.8999 963.752,691.9907 972,701 C993.6881,724.69 1020.3046,749.738 1039.8413,767.4616 " fill="none" id="Enemy&lt;-WaterEnemy" style="stroke: #A80036; stroke-width: 1.0;"/><polygon fill="none" points="941.8893,676.3539,935.0612,656.2945,952.9082,667.7177,941.8893,676.3539" style="stroke: #A80036; stroke-width: 1.0;"/><!--MD5=[8b551b5214d03d31ad6f13b82adb3bcc]
@startuml
Game *- - Thing

Thing <|- - PowerUp
Thing <|- - Obstacle
Thing <|- - MovingThing

Obstacle <|- - Bomb
Obstacle <|- - Wall

PowerUp <|- - PUincreaseExplotion
PowerUp <|- - PUspeedUp
PowerUp <|- - PUmoreSimultaneousBombs

MovingThing <|- - Enemy
MovingThing <|- - Bomberman

Wall <|- - FixedWall

Wall <|- - BreakableWall

Enemy <|- - BalloonEnemy
Enemy <|- - WaterEnemy

abstract class Game{

}

abstract class Map{
  +create()
}

abstract class Thing{
  -texture: Str
  -hitbox: Int
  -position: Int [2]
  +getPosition()
  +setPosition()
  +getTexture()
  +setTexture()
  +getHitbox()
  +setHitbox()
  +appear()
}

class Bomberman{
  -lives
  -powerUps
  -nOfSimultaneousBombs
  +getLives()
  +setLives()
  +getPowerUps()
  +setPowerUps()
}

class Bomb{
  -position
  -explorionRange
  -explotionTime
  +place()
  +explode()
}

abstract class Obstacle{
  +appear()
}

abstract class Wall{
}

class FixedWall{
  
}

class BreakableWall{
  +break()
}

abstract class Enemy{

}

class BalloonEnemy{

}

class WaterEnemy{

}



abstract class MovingThing {
  -speed: Int
  -direction: Int
  -pointTowards()
  -moveForward()
  +getSpeed()
  +setSpeed()
  +die()
  }

abstract class PowerUp{
}

class PUincreaseExplotion{
  +consume()
}

class PUspeedUp{
  +consume()
}

class PUmoreSimultaneousBombs{
  +consume()
}
@enduml

PlantUML version 1.2019.10(Fri Sep 13 20:53:03 UTC 2019)
(GPL source distribution)
Java Runtime: OpenJDK Runtime Environment
JVM: OpenJDK 64-Bit Server VM
Java Version: 1.8.0_222-heroku-b10
Operating System: Linux
Default Encoding: UTF-8
Language: en
Country: US
--></g></svg>